# xmcd
#
# Track frame offsets:
# 150
# 22341
# 40539
# 64707
# 89103
# 105557
# 121509
# 139332
# 163524
# 184093
# 197170
# 216803
# 238459
# 258169
#
# Disc length: 3681 seconds
#
#
# Revision: 0
# Processed by: cddbd v1.5.2PL0 Copyright (c) Steve Scherf et al.
# Submitted via: FreeRIP 2.95 
#
DISCID=c90e5f0e
DTITLE=Gal Costa - Ao Vivo
DYEAR=2007
DGENRE=Pop
TTITLE0=Fruta Gogóia
TTITLE1=Todo o Amor que Houver Nessa Vida
TTITLE2=Santana
TTITLE3=Mar e Sol
TTITLE4=Antonico
TTITLE5=Jurei
TTITLE6=Hoje
TTITLE7=Luto
TTITLE8=Pra que Cantar
TTITLE9=Embebedado
TTITLE10=Juventude Transviada
TTITLE11=Meu Nome É Gal
TTITLE12=Pout-Pourri: Coisa Mais Linda - As Time Goes By
TTITLE13=Logus-Pé
EXTD=
EXTT0=
EXTT1=
EXTT2=
EXTT3=
EXTT4=
EXTT5=
EXTT6=
EXTT7=
EXTT8=
EXTT9=
EXTT10=
EXTT11=
EXTT12=
EXTT13=
PLAYORDER=
